<svg width="24" height="25" viewBox="0 0 24 25" fill="none" xmlns="http://www.w3.org/2000/svg">
<path d="M5.5 6.14355H4C2.89543 6.14355 2 7.03899 2 8.14355V18.1436C2 19.2481 2.89543 20.1436 4 20.1436H20C21.1046 20.1436 22 19.2481 22 18.1436V8.14355C22 7.03899 21.1046 6.14355 20 6.14355H18.5" stroke="#2D41AD" stroke-width="2"/>
<path d="M12 6.64355V18.1436" stroke="#2D41AD" stroke-width="2"/>
<path d="M19 15.3523V5.9634C19 5.1019 18.1191 4.52107 17.3273 4.86043L12.4727 6.94097C12.1708 7.07034 11.8292 7.07034 11.5273 6.94097L6.6727 4.86043C5.88086 4.52107 5 5.1019 5 5.9634V15.7979C5 16.305 5.31881 16.7574 5.7964 16.928L11.5565 18.9852C11.8416 19.087 12.1546 19.0773 12.4328 18.9581L18.2727 16.4553C18.7139 16.2662 19 15.8323 19 15.3523Z" stroke="#2D41AD" stroke-width="2"/>
</svg>
