<svg width="24" height="24" viewBox="0 0 24 24" fill="none" xmlns="http://www.w3.org/2000/svg">
<path d="M10.2589 21.1873C14.2709 21.1873 17.5418 18.0145 17.6994 14.0412C17.706 13.8756 17.571 13.7409 17.4054 13.7409H10.5589C10.3932 13.7409 10.2589 13.6065 10.2589 13.4409V6.59443C10.2589 6.42875 10.1242 6.29381 9.95861 6.30038C5.9853 6.45798 2.8125 9.7289 2.8125 13.7409C2.8125 17.8534 6.14638 21.1873 10.2589 21.1873Z" stroke="#B9C1C9" stroke-width="2" stroke-linejoin="round"/>
<path d="M21.1814 9.95861C21.0278 6.08491 17.915 2.97209 14.0413 2.81845C13.8757 2.81188 13.741 2.94681 13.741 3.1125V9.95893C13.741 10.1246 13.8753 10.2589 14.041 10.2589H20.8874C21.0531 10.2589 21.188 10.1242 21.1814 9.95861Z" stroke="#B9C1C9" stroke-width="2" stroke-linejoin="round"/>
</svg>
