<svg width="24" height="25" viewBox="0 0 24 25" fill="none" xmlns="http://www.w3.org/2000/svg">
<path d="M10.2589 21.3308C14.2709 21.3308 17.5418 18.158 17.6994 14.1847C17.706 14.0192 17.571 13.8844 17.4054 13.8844H10.5589C10.3932 13.8844 10.2589 13.7501 10.2589 13.5844V6.73799C10.2589 6.5723 10.1242 6.43737 9.95861 6.44393C5.9853 6.60153 2.8125 9.87245 2.8125 13.8844C2.8125 17.997 6.14638 21.3308 10.2589 21.3308Z" stroke="#2D41AD" stroke-width="2" stroke-linejoin="round"/>
<path d="M21.1827 10.1022C21.029 6.22847 17.9162 3.11565 14.0425 2.962C13.8769 2.95543 13.7422 3.09037 13.7422 3.25605V10.1025C13.7422 10.2682 13.8765 10.4025 14.0422 10.4025H20.8886C21.0543 10.4025 21.1892 10.2677 21.1827 10.1022Z" stroke="#2D41AD" stroke-width="2" stroke-linejoin="round"/>
</svg>
