<svg width="24" height="24" viewBox="0 0 24 24" fill="none" xmlns="http://www.w3.org/2000/svg">
<path d="M13.9269 12.1946L12 14.1215C11.0237 15.0978 9.44077 15.0978 8.46446 14.1215L7.75736 13.4144C6.78105 12.4381 6.78105 10.8552 7.75736 9.87887L14.8284 2.80781C15.8047 1.8315 17.3876 1.8315 18.364 2.80781L19.0711 3.51491C20.0474 4.49122 20.0474 6.07414 19.0711 7.05045L17.7452 8.37627" stroke="#2D41AD" stroke-width="2" stroke-linecap="round" stroke-linejoin="round"/>
<path d="M6.29017 15.589L4.92899 16.9502C3.95268 17.9265 3.95268 19.5094 4.92899 20.4857L5.63609 21.1928C6.61241 22.1691 8.19532 22.1691 9.17163 21.1928L16.2427 14.1217C17.219 13.1454 17.219 11.5625 16.2427 10.5862L15.5356 9.8791C14.5593 8.90278 12.9764 8.90278 12.0001 9.87909L9.96712 11.912" stroke="#2D41AD" stroke-width="2" stroke-linecap="round" stroke-linejoin="round"/>
</svg>
