<svg width="152" height="28" viewBox="0 0 152 28" fill="none" xmlns="http://www.w3.org/2000/svg">
<rect width="21.1771" height="21.1773" rx="3.11429" transform="matrix(0.939692 0.342023 -0.342017 0.939694 7.24304 0.428711)" fill="#2D41AD"/>
<path d="M36.5989 20V8.16H43.8949V10.128H38.9669V13.216H43.1749V15.2H38.9669V20H36.5989ZM45.217 20V11.04H47.553V20H45.217ZM46.401 9.6C45.585 9.6 44.993 9.056 44.993 8.32C44.993 7.552 45.585 7.04 46.401 7.04C47.201 7.04 47.793 7.552 47.793 8.32C47.793 9.056 47.201 9.6 46.401 9.6ZM49.527 20V11.04H51.447L51.607 12.224H51.671C52.455 11.456 53.367 10.816 54.583 10.816C56.519 10.816 57.351 12.16 57.351 14.416V20H54.999V14.704C54.999 13.328 54.615 12.832 53.735 12.832C52.999 12.832 52.535 13.184 51.863 13.84V20H49.527ZM58.7477 16.256V14.576H63.1157V16.256H58.7477ZM66.1755 20V10.128H62.8475V8.16H71.9035V10.128H68.5435V20H66.1755ZM73.0822 20V11.04H75.4182V20H73.0822ZM74.2662 9.6C73.4502 9.6 72.8582 9.056 72.8582 8.32C72.8582 7.552 73.4502 7.04 74.2662 7.04C75.0662 7.04 75.6582 7.552 75.6582 8.32C75.6582 9.056 75.0662 9.6 74.2662 9.6ZM77.3922 20V11.04H79.3122L79.4722 12.24H79.5362C80.2882 11.456 81.1202 10.816 82.2882 10.816C83.5682 10.816 84.3202 11.392 84.7522 12.384C85.5682 11.52 86.4322 10.816 87.6002 10.816C89.5042 10.816 90.3842 12.16 90.3842 14.416V20H88.0322V14.704C88.0322 13.328 87.6322 12.832 86.7842 12.832C86.2722 12.832 85.6962 13.168 85.0562 13.84V20H82.7042V14.704C82.7042 13.328 82.3042 12.832 81.4562 12.832C80.9442 12.832 80.3682 13.168 79.7282 13.84V20H77.3922ZM96.1528 20.224C93.6568 20.224 91.7048 18.48 91.7048 15.536C91.7048 12.624 93.7368 10.816 95.8808 10.816C98.3448 10.816 99.6248 12.624 99.6248 15.104C99.6248 15.536 99.5768 15.968 99.5128 16.176H93.9928C94.1848 17.648 95.1448 18.416 96.4728 18.416C97.2088 18.416 97.8488 18.192 98.4888 17.792L99.2888 19.232C98.4088 19.84 97.2728 20.224 96.1528 20.224ZM93.9608 14.624H97.6088C97.6088 13.408 97.0648 12.64 95.9128 12.64C94.9688 12.64 94.1368 13.312 93.9608 14.624ZM106.504 15.12H109.32L108.968 13.824C108.6 12.592 108.28 11.232 107.928 9.952H107.864C107.56 11.248 107.208 12.592 106.856 13.824L106.504 15.12ZM110.664 20L109.832 16.96H105.992L105.16 20H102.76L106.552 8.16H109.336L113.144 20H110.664ZM116.941 20.224C114.717 20.224 113.277 18.464 113.277 15.536C113.277 12.608 115.101 10.816 117.037 10.816C118.045 10.816 118.669 11.2 119.309 11.792L119.213 10.384V7.232H121.565V20H119.661L119.469 19.072H119.421C118.765 19.712 117.869 20.224 116.941 20.224ZM117.549 18.288C118.173 18.288 118.701 18.032 119.213 17.36V13.424C118.669 12.928 118.109 12.752 117.549 12.752C116.541 12.752 115.693 13.712 115.693 15.504C115.693 17.36 116.365 18.288 117.549 18.288ZM123.536 20V11.04H125.456L125.616 12.24H125.68C126.432 11.456 127.264 10.816 128.432 10.816C129.712 10.816 130.464 11.392 130.896 12.384C131.712 11.52 132.576 10.816 133.744 10.816C135.648 10.816 136.528 12.16 136.528 14.416V20H134.176V14.704C134.176 13.328 133.776 12.832 132.928 12.832C132.416 12.832 131.84 13.168 131.2 13.84V20H128.848V14.704C128.848 13.328 128.448 12.832 127.6 12.832C127.088 12.832 126.512 13.168 125.872 13.84V20H123.536ZM138.409 20V11.04H140.745V20H138.409ZM139.593 9.6C138.777 9.6 138.185 9.056 138.185 8.32C138.185 7.552 138.777 7.04 139.593 7.04C140.393 7.04 140.985 7.552 140.985 8.32C140.985 9.056 140.393 9.6 139.593 9.6ZM142.719 20V11.04H144.639L144.799 12.224H144.863C145.647 11.456 146.559 10.816 147.775 10.816C149.711 10.816 150.543 12.16 150.543 14.416V20H148.191V14.704C148.191 13.328 147.807 12.832 146.927 12.832C146.191 12.832 145.727 13.184 145.055 13.84V20H142.719Z" fill="#2D41AD"/>
</svg>
